# xmcd CD database file
#
# Track frame offsets:
#	150
#	19370
#	44605
#	68215
#	91785
#	110405
#	130245
#	156735
#	177690
#	193725
#	208555
#	221155
#
# Disc length: 3171 seconds
#
# Revision: 0
# Processed by: cddbd v1.5.2PL0 Copyright (c) Steve Scherf et al.
# Submitted via: CDex 1.70beta2
#
DISCID=bd0c610c
DTITLE=Le mystère des éléphants - Le mystère des éléphants
DYEAR=2006
DGENRE=Jazz
TTITLE0=Elephant Run
TTITLE1=La Culebra
TTITLE2=Caremba
TTITLE3=Altama
TTITLE4=Carnaval du Cap Vert
TTITLE5=Evry Wrong
TTITLE6=Sumch
TTITLE7=Hayet
TTITLE8=Valse Druze
TTITLE9=Eli Eli
TTITLE10=Prnavor
TTITLE11=La Comp Comp
EXTD=YEAR: 2006
EXTT0=
EXTT1=
EXTT2=
EXTT3=
EXTT4=
EXTT5=
EXTT6=
EXTT7=
EXTT8=
EXTT9=
EXTT10=
EXTT11=
PLAYORDER=
